<svg xmlns="http://www.w3.org/2000/svg" viewBox="0 0 64 64" fill="none">
  <rect width="64" height="64" rx="14" fill="#07241C" />
  <circle cx="32" cy="32" r="26" stroke="#D59220" stroke-width="1.5" stroke-dasharray="2 3" />
  <path d="M22 23C20.5 24.5 19 28 19 32C19 36 20.5 39.5 22 41C23.5 42.5 26.5 43 30 42L30 38C27 38.5 24.5 38 24 36.5C23.5 35 23.5 33.5 23.5 32C23.5 30.5 23.5 29 24 27.5C24.5 26 27 25.5 30 26L30 22C26.5 21 23.5 21.5 22 23Z" fill="#FDF2DC" />
  <path d="M34 22H39V29.5L44.5 22H50.5L44 30.5L51 42H45L39 32.5V42H34V22Z" fill="#E4A22E" />
</svg>